<svg width="296" height="346" viewBox="0 0 296 346" fill="none" xmlns="http://www.w3.org/2000/svg">
<rect x="0.75" y="0.75" width="294.5" height="344.5" rx="23.25" fill="url(#paint0_linear_196606_681)" stroke="#9F75FF" stroke-width="1.5" stroke-dasharray="6 6"/>
<path d="M100.565 169.16C99.5299 169.16 98.6392 168.973 97.8926 168.6C97.1566 168.216 96.5272 167.667 96.0046 166.952L97.4606 165.304C97.9832 166.029 98.5006 166.525 99.0126 166.792C99.5246 167.048 100.09 167.176 100.709 167.176C101.21 167.176 101.631 167.069 101.973 166.856C102.325 166.643 102.501 166.355 102.501 165.992C102.501 165.555 102.277 165.213 101.829 164.968C101.391 164.712 100.826 164.515 100.133 164.376C98.9272 164.12 98.0312 163.709 97.4446 163.144C96.8579 162.579 96.5646 161.827 96.5646 160.888C96.5646 160.237 96.7512 159.667 97.1246 159.176C97.4979 158.675 97.9886 158.285 98.5966 158.008C99.2152 157.731 99.8979 157.592 100.645 157.592C101.637 157.592 102.458 157.763 103.109 158.104C103.77 158.435 104.293 158.909 104.677 159.528L103.189 160.984C102.527 160.045 101.685 159.576 100.661 159.576C100.127 159.576 99.6952 159.688 99.3646 159.912C99.0446 160.125 98.8846 160.419 98.8846 160.792C98.8846 161.187 99.0712 161.496 99.4446 161.72C99.8286 161.944 100.341 162.12 100.981 162.248C102.154 162.493 103.082 162.888 103.765 163.432C104.458 163.965 104.805 164.685 104.805 165.592C104.805 166.339 104.623 166.979 104.261 167.512C103.909 168.045 103.413 168.456 102.773 168.744C102.143 169.021 101.407 169.16 100.565 169.16ZM110.691 169.16C109.784 169.16 108.989 168.973 108.307 168.6C107.624 168.227 107.091 167.715 106.707 167.064C106.333 166.413 106.147 165.667 106.147 164.824C106.147 163.949 106.328 163.181 106.691 162.52C107.064 161.848 107.571 161.32 108.211 160.936C108.861 160.552 109.608 160.36 110.451 160.36C111.208 160.36 111.885 160.547 112.483 160.92C113.091 161.283 113.56 161.779 113.891 162.408C114.232 163.037 114.392 163.757 114.371 164.568L114.355 165.256H108.275C108.392 165.864 108.68 166.344 109.139 166.696C109.608 167.048 110.2 167.224 110.915 167.224C111.299 167.224 111.645 167.165 111.955 167.048C112.275 166.931 112.616 166.723 112.979 166.424L114.035 167.896C113.576 168.301 113.048 168.616 112.451 168.84C111.864 169.053 111.277 169.16 110.691 169.16ZM110.467 162.248C109.261 162.248 108.536 162.792 108.291 163.88H112.291V163.816C112.259 163.357 112.067 162.984 111.715 162.696C111.373 162.397 110.957 162.248 110.467 162.248ZM116.098 169V157.16H118.274V169H116.098ZM124.425 169.16C123.518 169.16 122.724 168.973 122.041 168.6C121.358 168.227 120.825 167.715 120.441 167.064C120.068 166.413 119.881 165.667 119.881 164.824C119.881 163.949 120.062 163.181 120.425 162.52C120.798 161.848 121.305 161.32 121.945 160.936C122.596 160.552 123.342 160.36 124.185 160.36C124.942 160.36 125.62 160.547 126.217 160.92C126.825 161.283 127.294 161.779 127.625 162.408C127.966 163.037 128.126 163.757 128.105 164.568L128.089 165.256H122.009C122.126 165.864 122.414 166.344 122.873 166.696C123.342 167.048 123.934 167.224 124.649 167.224C125.033 167.224 125.38 167.165 125.689 167.048C126.009 166.931 126.35 166.723 126.713 166.424L127.769 167.896C127.31 168.301 126.782 168.616 126.185 168.84C125.598 169.053 125.012 169.16 124.425 169.16ZM124.201 162.248C122.996 162.248 122.27 162.792 122.025 163.88H126.025V163.816C125.993 163.357 125.801 162.984 125.449 162.696C125.108 162.397 124.692 162.248 124.201 162.248ZM133.464 169.16C132.664 169.16 131.944 168.968 131.304 168.584C130.675 168.2 130.173 167.677 129.8 167.016C129.437 166.355 129.256 165.603 129.256 164.76C129.256 163.928 129.437 163.181 129.8 162.52C130.173 161.859 130.675 161.336 131.304 160.952C131.944 160.568 132.664 160.376 133.464 160.376C134.221 160.376 134.909 160.515 135.528 160.792C136.157 161.069 136.648 161.459 137 161.96L135.8 163.4C135.576 163.091 135.267 162.829 134.872 162.616C134.477 162.392 134.077 162.28 133.672 162.28C133.224 162.28 132.824 162.392 132.472 162.616C132.131 162.829 131.859 163.123 131.656 163.496C131.464 163.869 131.368 164.291 131.368 164.76C131.368 165.229 131.469 165.651 131.672 166.024C131.875 166.397 132.152 166.696 132.504 166.92C132.856 167.133 133.251 167.24 133.688 167.24C134.104 167.24 134.488 167.149 134.84 166.968C135.192 166.776 135.512 166.509 135.8 166.168L137 167.608C136.637 168.077 136.136 168.456 135.496 168.744C134.856 169.021 134.179 169.16 133.464 169.16ZM139.784 158.792C139.358 158.792 139.022 158.685 138.776 158.472C138.542 158.259 138.424 157.965 138.424 157.592C138.424 157.229 138.542 156.936 138.776 156.712C139.022 156.488 139.358 156.376 139.784 156.376C140.211 156.376 140.542 156.483 140.776 156.696C141.011 156.909 141.128 157.208 141.128 157.592C141.128 157.944 141.006 158.232 140.76 158.456C140.526 158.68 140.2 158.792 139.784 158.792ZM138.696 169V160.552H140.888V169H138.696ZM147.251 169.16C146.387 169.16 145.619 168.973 144.947 168.6C144.275 168.216 143.747 167.693 143.363 167.032C142.979 166.371 142.787 165.613 142.787 164.76C142.787 163.917 142.979 163.165 143.363 162.504C143.747 161.843 144.275 161.325 144.947 160.952C145.619 160.568 146.387 160.376 147.251 160.376C148.094 160.376 148.851 160.568 149.523 160.952C150.195 161.325 150.723 161.843 151.107 162.504C151.491 163.165 151.683 163.917 151.683 164.76C151.683 165.613 151.491 166.371 151.107 167.032C150.723 167.693 150.195 168.216 149.523 168.6C148.851 168.973 148.094 169.16 147.251 169.16ZM147.251 167.256C147.678 167.256 148.062 167.149 148.403 166.936C148.745 166.712 149.006 166.413 149.187 166.04C149.379 165.667 149.475 165.24 149.475 164.76C149.475 164.28 149.379 163.853 149.187 163.48C149.006 163.107 148.745 162.813 148.403 162.6C148.062 162.387 147.678 162.28 147.251 162.28C146.814 162.28 146.425 162.387 146.083 162.6C145.742 162.813 145.475 163.107 145.283 163.48C145.091 163.853 144.995 164.28 144.995 164.76C144.995 165.24 145.091 165.667 145.283 166.04C145.475 166.413 145.742 166.712 146.083 166.936C146.425 167.149 146.814 167.256 147.251 167.256ZM153.409 169V160.552H155.521L155.553 161.688C155.841 161.304 156.225 160.989 156.705 160.744C157.185 160.499 157.687 160.376 158.209 160.376C160.151 160.376 161.121 161.528 161.121 163.832V169H158.945V163.992C158.945 162.787 158.439 162.205 157.425 162.248C156.903 162.248 156.465 162.408 156.113 162.728C155.772 163.048 155.601 163.443 155.601 163.912V169H153.409ZM167.3 169.16C166.393 169.16 165.599 168.973 164.916 168.6C164.233 168.227 163.7 167.715 163.316 167.064C162.943 166.413 162.756 165.667 162.756 164.824C162.756 163.949 162.937 163.181 163.3 162.52C163.673 161.848 164.18 161.32 164.82 160.936C165.471 160.552 166.217 160.36 167.06 160.36C167.817 160.36 168.495 160.547 169.092 160.92C169.7 161.283 170.169 161.779 170.5 162.408C170.841 163.037 171.001 163.757 170.98 164.568L170.964 165.256H164.884C165.001 165.864 165.289 166.344 165.748 166.696C166.217 167.048 166.809 167.224 167.524 167.224C167.908 167.224 168.255 167.165 168.564 167.048C168.884 166.931 169.225 166.723 169.588 166.424L170.644 167.896C170.185 168.301 169.657 168.616 169.06 168.84C168.473 169.053 167.887 169.16 167.3 169.16ZM167.076 162.248C165.871 162.248 165.145 162.792 164.9 163.88H168.9V163.816C168.868 163.357 168.676 162.984 168.324 162.696C167.983 162.397 167.567 162.248 167.076 162.248ZM180.447 169.16C179.519 169.16 178.788 168.861 178.255 168.264C177.732 167.656 177.471 166.824 177.471 165.768V160.552H179.647V165.368C179.647 165.976 179.791 166.456 180.079 166.808C180.377 167.149 180.783 167.32 181.295 167.32C181.807 167.32 182.228 167.16 182.559 166.84C182.9 166.52 183.071 166.109 183.071 165.608V160.552H185.247V169H183.167L183.119 167.816C182.831 168.221 182.447 168.547 181.967 168.792C181.497 169.037 180.991 169.16 180.447 169.16ZM187.518 169V160.552H189.63L189.662 161.752C189.961 161.347 190.334 161.021 190.782 160.776C191.23 160.52 191.7 160.392 192.19 160.392C192.798 160.392 193.305 160.525 193.71 160.792C194.116 161.048 194.446 161.459 194.702 162.024C195.012 161.523 195.428 161.128 195.95 160.84C196.484 160.541 197.033 160.392 197.598 160.392C199.529 160.392 200.494 161.555 200.494 163.88V169H198.302V164.04C198.302 162.867 197.822 162.28 196.862 162.28C196.35 162.28 195.924 162.44 195.582 162.76C195.252 163.08 195.086 163.48 195.086 163.96V169H192.894V164.008C192.894 163.453 192.772 163.027 192.526 162.728C192.281 162.429 191.929 162.28 191.47 162.28C190.969 162.28 190.548 162.44 190.206 162.76C189.876 163.08 189.71 163.469 189.71 163.928V169H187.518ZM73.3313 192.52V180.552H75.4433L75.4753 181.576C75.7526 181.235 76.1313 180.952 76.6113 180.728C77.0913 180.504 77.598 180.392 78.1313 180.392C78.8673 180.392 79.5233 180.579 80.0993 180.952C80.6753 181.325 81.1286 181.843 81.4593 182.504C81.79 183.165 81.9553 183.917 81.9553 184.76C81.9553 185.603 81.79 186.355 81.4593 187.016C81.1286 187.677 80.6753 188.2 80.0993 188.584C79.5233 188.957 78.8673 189.144 78.1313 189.144C77.63 189.144 77.1446 189.043 76.6753 188.84C76.206 188.627 75.8273 188.36 75.5393 188.04V192.52H73.3313ZM77.6513 187.256C78.302 187.256 78.83 187.027 79.2353 186.568C79.6406 186.099 79.8433 185.496 79.8433 184.76C79.8433 184.035 79.6406 183.443 79.2353 182.984C78.83 182.515 78.302 182.28 77.6513 182.28C77.0006 182.28 76.4726 182.509 76.0673 182.968C75.662 183.427 75.4593 184.024 75.4593 184.76C75.4593 185.496 75.662 186.099 76.0673 186.568C76.4726 187.027 77.0006 187.256 77.6513 187.256ZM87.6107 189.16C86.7467 189.16 85.9787 188.973 85.3067 188.6C84.6347 188.216 84.1067 187.693 83.7227 187.032C83.3387 186.371 83.1467 185.613 83.1467 184.76C83.1467 183.917 83.3387 183.165 83.7227 182.504C84.1067 181.843 84.6347 181.325 85.3067 180.952C85.9787 180.568 86.7467 180.376 87.6107 180.376C88.4534 180.376 89.2107 180.568 89.8827 180.952C90.5547 181.325 91.0827 181.843 91.4667 182.504C91.8507 183.165 92.0427 183.917 92.0427 184.76C92.0427 185.613 91.8507 186.371 91.4667 187.032C91.0827 187.693 90.5547 188.216 89.8827 188.6C89.2107 188.973 88.4534 189.16 87.6107 189.16ZM87.6107 187.256C88.0374 187.256 88.4214 187.149 88.7627 186.936C89.104 186.712 89.3654 186.413 89.5467 186.04C89.7387 185.667 89.8347 185.24 89.8347 184.76C89.8347 184.28 89.7387 183.853 89.5467 183.48C89.3654 183.107 89.104 182.813 88.7627 182.6C88.4214 182.387 88.0374 182.28 87.6107 182.28C87.1734 182.28 86.784 182.387 86.4427 182.6C86.1014 182.813 85.8347 183.107 85.6427 183.48C85.4507 183.853 85.3547 184.28 85.3547 184.76C85.3547 185.24 85.4507 185.667 85.6427 186.04C85.8347 186.413 86.1014 186.712 86.4427 186.936C86.784 187.149 87.1734 187.256 87.6107 187.256ZM97.1128 189.16C96.3661 189.16 95.6995 188.973 95.1128 188.6C94.5261 188.216 94.0621 187.693 93.7208 187.032C93.3901 186.371 93.2248 185.619 93.2248 184.776C93.2248 183.923 93.3901 183.165 93.7208 182.504C94.0621 181.843 94.5261 181.325 95.1128 180.952C95.6995 180.568 96.3661 180.376 97.1128 180.376C97.6248 180.376 98.1101 180.477 98.5688 180.68C99.0381 180.883 99.4168 181.144 99.7048 181.464V177.16H101.897V189H99.8168L99.7848 187.992C99.5075 188.323 99.1288 188.6 98.6488 188.824C98.1688 189.048 97.6568 189.16 97.1128 189.16ZM97.5928 187.336C98.2435 187.336 98.7715 187.101 99.1768 186.632C99.5821 186.152 99.7848 185.533 99.7848 184.776C99.7848 184.008 99.5821 183.389 99.1768 182.92C98.7715 182.44 98.2435 182.2 97.5928 182.2C96.9421 182.2 96.4141 182.44 96.0088 182.92C95.6035 183.389 95.4008 184.008 95.4008 184.776C95.4008 185.533 95.6035 186.152 96.0088 186.632C96.4141 187.101 96.9421 187.336 97.5928 187.336ZM107.777 189.16C106.977 189.16 106.257 188.968 105.617 188.584C104.987 188.2 104.486 187.677 104.113 187.016C103.75 186.355 103.569 185.603 103.569 184.76C103.569 183.928 103.75 183.181 104.113 182.52C104.486 181.859 104.987 181.336 105.617 180.952C106.257 180.568 106.977 180.376 107.777 180.376C108.534 180.376 109.222 180.515 109.841 180.792C110.47 181.069 110.961 181.459 111.313 181.96L110.113 183.4C109.889 183.091 109.579 182.829 109.185 182.616C108.79 182.392 108.39 182.28 107.985 182.28C107.537 182.28 107.137 182.392 106.785 182.616C106.443 182.829 106.171 183.123 105.969 183.496C105.777 183.869 105.681 184.291 105.681 184.76C105.681 185.229 105.782 185.651 105.985 186.024C106.187 186.397 106.465 186.696 106.817 186.92C107.169 187.133 107.563 187.24 108.001 187.24C108.417 187.24 108.801 187.149 109.153 186.968C109.505 186.776 109.825 186.509 110.113 186.168L111.313 187.608C110.95 188.077 110.449 188.456 109.809 188.744C109.169 189.021 108.491 189.16 107.777 189.16ZM115.953 189.16C115.249 189.16 114.614 188.968 114.049 188.584C113.483 188.2 113.03 187.677 112.689 187.016C112.358 186.355 112.193 185.603 112.193 184.76C112.193 183.896 112.358 183.139 112.689 182.488C113.03 181.827 113.489 181.309 114.065 180.936C114.651 180.563 115.313 180.376 116.049 180.376C116.646 180.376 117.169 180.499 117.617 180.744C118.065 180.979 118.422 181.288 118.689 181.672V180.552H120.865V189H118.673V187.864C118.374 188.237 117.985 188.547 117.505 188.792C117.035 189.037 116.518 189.16 115.953 189.16ZM116.545 187.256C117.195 187.256 117.723 187.027 118.129 186.568C118.534 186.109 118.737 185.507 118.737 184.76C118.737 184.013 118.534 183.411 118.129 182.952C117.723 182.493 117.195 182.264 116.545 182.264C115.905 182.264 115.382 182.493 114.977 182.952C114.582 183.411 114.385 184.013 114.385 184.76C114.385 185.507 114.582 186.109 114.977 186.568C115.382 187.027 115.905 187.256 116.545 187.256ZM125.992 189.16C125.213 189.16 124.52 189.032 123.912 188.776C123.304 188.52 122.813 188.157 122.44 187.688L123.816 186.52C124.136 186.872 124.498 187.128 124.904 187.288C125.309 187.437 125.72 187.512 126.136 187.512C126.466 187.512 126.733 187.437 126.936 187.288C127.138 187.139 127.24 186.931 127.24 186.664C127.24 186.429 127.144 186.243 126.952 186.104C126.76 185.976 126.301 185.816 125.576 185.624C124.498 185.347 123.736 184.968 123.288 184.488C122.893 184.061 122.696 183.533 122.696 182.904C122.696 182.403 122.845 181.965 123.144 181.592C123.442 181.208 123.837 180.909 124.328 180.696C124.818 180.483 125.352 180.376 125.928 180.376C126.589 180.376 127.213 180.493 127.8 180.728C128.386 180.963 128.877 181.283 129.272 181.688L128.088 182.984C127.789 182.707 127.442 182.477 127.048 182.296C126.664 182.104 126.306 182.008 125.976 182.008C125.208 182.008 124.824 182.275 124.824 182.808C124.834 183.064 124.952 183.267 125.176 183.416C125.389 183.565 125.874 183.741 126.632 183.944C127.645 184.211 128.36 184.563 128.776 185C129.138 185.373 129.32 185.869 129.32 186.488C129.32 187 129.17 187.459 128.872 187.864C128.584 188.269 128.189 188.589 127.688 188.824C127.186 189.048 126.621 189.16 125.992 189.16ZM131.804 189V182.52H130.204V180.552H131.804V178.392H133.98V180.552H135.756V182.52H133.98V189H131.804ZM142.066 192.52V180.552H144.178L144.21 181.576C144.487 181.235 144.866 180.952 145.346 180.728C145.826 180.504 146.332 180.392 146.866 180.392C147.602 180.392 148.258 180.579 148.834 180.952C149.41 181.325 149.863 181.843 150.194 182.504C150.524 183.165 150.69 183.917 150.69 184.76C150.69 185.603 150.524 186.355 150.194 187.016C149.863 187.677 149.41 188.2 148.834 188.584C148.258 188.957 147.602 189.144 146.866 189.144C146.364 189.144 145.879 189.043 145.41 188.84C144.94 188.627 144.562 188.36 144.274 188.04V192.52H142.066ZM146.386 187.256C147.036 187.256 147.564 187.027 147.97 186.568C148.375 186.099 148.578 185.496 148.578 184.76C148.578 184.035 148.375 183.443 147.97 182.984C147.564 182.515 147.036 182.28 146.386 182.28C145.735 182.28 145.207 182.509 144.802 182.968C144.396 183.427 144.194 184.024 144.194 184.76C144.194 185.496 144.396 186.099 144.802 186.568C145.207 187.027 145.735 187.256 146.386 187.256ZM155.609 189.16C154.905 189.16 154.27 188.968 153.705 188.584C153.14 188.2 152.686 187.677 152.345 187.016C152.014 186.355 151.849 185.603 151.849 184.76C151.849 183.896 152.014 183.139 152.345 182.488C152.686 181.827 153.145 181.309 153.721 180.936C154.308 180.563 154.969 180.376 155.705 180.376C156.302 180.376 156.825 180.499 157.273 180.744C157.721 180.979 158.078 181.288 158.345 181.672V180.552H160.521V189H158.329V187.864C158.03 188.237 157.641 188.547 157.161 188.792C156.692 189.037 156.174 189.16 155.609 189.16ZM156.201 187.256C156.852 187.256 157.38 187.027 157.785 186.568C158.19 186.109 158.393 185.507 158.393 184.76C158.393 184.013 158.19 183.411 157.785 182.952C157.38 182.493 156.852 182.264 156.201 182.264C155.561 182.264 155.038 182.493 154.633 182.952C154.238 183.411 154.041 184.013 154.041 184.76C154.041 185.507 154.238 186.109 154.633 186.568C155.038 187.027 155.561 187.256 156.201 187.256ZM162.8 189V180.552H164.912L164.944 181.944C165.221 181.485 165.584 181.112 166.032 180.824C166.491 180.525 166.971 180.376 167.472 180.376C167.664 180.376 167.84 180.392 168 180.424C168.171 180.445 168.315 180.477 168.432 180.52L167.84 182.92C167.723 182.856 167.573 182.803 167.392 182.76C167.211 182.717 167.029 182.696 166.848 182.696C166.325 182.696 165.883 182.877 165.52 183.24C165.168 183.592 164.992 184.04 164.992 184.584V189H162.8ZM172.547 189.16C171.843 189.16 171.208 188.968 170.643 188.584C170.077 188.2 169.624 187.677 169.283 187.016C168.952 186.355 168.787 185.603 168.787 184.76C168.787 183.896 168.952 183.139 169.283 182.488C169.624 181.827 170.083 181.309 170.659 180.936C171.245 180.563 171.907 180.376 172.643 180.376C173.24 180.376 173.763 180.499 174.211 180.744C174.659 180.979 175.016 181.288 175.283 181.672V180.552H177.459V189H175.267V187.864C174.968 188.237 174.579 188.547 174.099 188.792C173.629 189.037 173.112 189.16 172.547 189.16ZM173.139 187.256C173.789 187.256 174.317 187.027 174.723 186.568C175.128 186.109 175.331 185.507 175.331 184.76C175.331 184.013 175.128 183.411 174.723 182.952C174.317 182.493 173.789 182.264 173.139 182.264C172.499 182.264 171.976 182.493 171.571 182.952C171.176 183.411 170.979 184.013 170.979 184.76C170.979 185.507 171.176 186.109 171.571 186.568C171.976 187.027 172.499 187.256 173.139 187.256ZM188.501 189.16C187.637 189.16 186.869 188.973 186.197 188.6C185.525 188.216 184.997 187.693 184.613 187.032C184.229 186.371 184.037 185.613 184.037 184.76C184.037 183.917 184.229 183.165 184.613 182.504C184.997 181.843 185.525 181.325 186.197 180.952C186.869 180.568 187.637 180.376 188.501 180.376C189.344 180.376 190.101 180.568 190.773 180.952C191.445 181.325 191.973 181.843 192.357 182.504C192.741 183.165 192.933 183.917 192.933 184.76C192.933 185.613 192.741 186.371 192.357 187.032C191.973 187.693 191.445 188.216 190.773 188.6C190.101 188.973 189.344 189.16 188.501 189.16ZM188.501 187.256C188.928 187.256 189.312 187.149 189.653 186.936C189.995 186.712 190.256 186.413 190.437 186.04C190.629 185.667 190.725 185.24 190.725 184.76C190.725 184.28 190.629 183.853 190.437 183.48C190.256 183.107 189.995 182.813 189.653 182.6C189.312 182.387 188.928 182.28 188.501 182.28C188.064 182.28 187.675 182.387 187.333 182.6C186.992 182.813 186.725 183.107 186.533 183.48C186.341 183.853 186.245 184.28 186.245 184.76C186.245 185.24 186.341 185.667 186.533 186.04C186.725 186.413 186.992 186.712 187.333 186.936C187.675 187.149 188.064 187.256 188.501 187.256ZM197.587 189.16C196.659 189.16 195.929 188.861 195.395 188.264C194.873 187.656 194.611 186.824 194.611 185.768V180.552H196.787V185.368C196.787 185.976 196.931 186.456 197.219 186.808C197.518 187.149 197.923 187.32 198.435 187.32C198.947 187.32 199.369 187.16 199.699 186.84C200.041 186.52 200.211 186.109 200.211 185.608V180.552H202.387V189H200.307L200.259 187.816C199.971 188.221 199.587 188.547 199.107 188.792C198.638 189.037 198.131 189.16 197.587 189.16ZM207.347 189L203.795 180.552H206.195L208.259 186.248L210.403 180.552H212.739L209.011 189H207.347ZM215.472 178.792C215.045 178.792 214.709 178.685 214.464 178.472C214.229 178.259 214.112 177.965 214.112 177.592C214.112 177.229 214.229 176.936 214.464 176.712C214.709 176.488 215.045 176.376 215.472 176.376C215.898 176.376 216.229 176.483 216.464 176.696C216.698 176.909 216.816 177.208 216.816 177.592C216.816 177.944 216.693 178.232 216.448 178.456C216.213 178.68 215.888 178.792 215.472 178.792ZM214.384 189V180.552H216.576V189H214.384ZM219.019 189V180.552H221.131L221.163 181.944C221.44 181.485 221.803 181.112 222.251 180.824C222.709 180.525 223.189 180.376 223.691 180.376C223.883 180.376 224.059 180.392 224.219 180.424C224.389 180.445 224.533 180.477 224.651 180.52L224.059 182.92C223.941 182.856 223.792 182.803 223.611 182.76C223.429 182.717 223.248 182.696 223.067 182.696C222.544 182.696 222.101 182.877 221.739 183.24C221.387 183.592 221.211 184.04 221.211 184.584V189H219.019Z" fill="white"/>
<defs>
<linearGradient id="paint0_linear_196606_681" x1="0" y1="0" x2="296" y2="346" gradientUnits="userSpaceOnUse">
<stop stop-color="#9164FA" stop-opacity="0.8"/>
<stop offset="1" stop-color="#9164FA" stop-opacity="0"/>
</linearGradient>
</defs>
</svg>
