<?xml version="1.0" encoding="utf-8"?>
<svg viewBox="0 0 163 40" fill="none" xmlns="http://www.w3.org/2000/svg" xmlns:bx="https://boxy-svg.com">
  <defs>
    <style bx:fonts="Lexend">@import url(https://fonts.googleapis.com/css2?family=Lexend%3Aital%2Cwght%400%2C100%3B0%2C200%3B0%2C300%3B0%2C400%3B0%2C500%3B0%2C600%3B0%2C700%3B0%2C800%3B0%2C900&amp;display=swap);</style>
  </defs>
  <path d="M 49.332 17.813 L 49.332 1.013 L 56.412 1.013 C 57.404 1.013 58.292 1.253 59.076 1.733 C 59.876 2.197 60.508 2.837 60.972 3.653 C 61.452 4.453 61.692 5.357 61.692 6.365 C 61.692 7.405 61.452 8.341 60.972 9.173 C 60.508 9.989 59.876 10.645 59.076 11.141 C 58.292 11.621 57.404 11.861 56.412 11.861 L 52.788 11.861 L 52.788 17.813 L 49.332 17.813 Z M 52.764 8.717 L 56.052 8.717 C 56.644 8.717 57.14 8.501 57.54 8.069 C 57.956 7.621 58.164 7.069 58.164 6.413 C 58.164 5.757 57.956 5.221 57.54 4.805 C 57.14 4.373 56.644 4.157 56.052 4.157 L 52.764 4.157 L 52.764 8.717 Z" fill="#494D4B"/>
  <path d="M 70.083 18.053 C 68.787 18.053 67.635 17.773 66.627 17.213 C 65.619 16.637 64.827 15.853 64.251 14.861 C 63.675 13.869 63.387 12.733 63.387 11.453 C 63.387 10.189 63.675 9.061 64.251 8.069 C 64.827 7.077 65.619 6.301 66.627 5.741 C 67.635 5.165 68.787 4.877 70.083 4.877 C 71.347 4.877 72.483 5.165 73.491 5.741 C 74.499 6.301 75.291 7.077 75.867 8.069 C 76.443 9.061 76.731 10.189 76.731 11.453 C 76.731 12.733 76.443 13.869 75.867 14.861 C 75.291 15.853 74.499 16.637 73.491 17.213 C 72.483 17.773 71.347 18.053 70.083 18.053 Z M 70.083 15.197 C 70.723 15.197 71.299 15.037 71.811 14.717 C 72.323 14.381 72.715 13.933 72.987 13.373 C 73.275 12.813 73.419 12.173 73.419 11.453 C 73.419 10.733 73.275 10.093 72.987 9.533 C 72.715 8.973 72.323 8.533 71.811 8.213 C 71.299 7.893 70.723 7.733 70.083 7.733 C 69.427 7.733 68.843 7.893 68.331 8.213 C 67.819 8.533 67.419 8.973 67.131 9.533 C 66.843 10.093 66.699 10.733 66.699 11.453 C 66.699 12.173 66.843 12.813 67.131 13.373 C 67.419 13.933 67.819 14.381 68.331 14.717 C 68.843 15.037 69.427 15.197 70.083 15.197 Z" fill="#494D4B"/>
  <path d="M 84.336 18.053 C 83.216 18.053 82.216 17.773 81.336 17.213 C 80.456 16.637 79.76 15.853 79.248 14.861 C 78.752 13.869 78.504 12.741 78.504 11.477 C 78.504 10.197 78.752 9.061 79.248 8.069 C 79.76 7.077 80.456 6.301 81.336 5.741 C 82.216 5.165 83.216 4.877 84.336 4.877 C 85.104 4.877 85.832 5.029 86.52 5.333 C 87.224 5.637 87.792 6.029 88.224 6.509 L 88.224 0.053 L 91.512 0.053 L 91.512 17.813 L 88.392 17.813 L 88.344 16.301 C 87.928 16.797 87.36 17.213 86.64 17.549 C 85.92 17.885 85.152 18.053 84.336 18.053 Z M 85.056 15.317 C 86.032 15.317 86.824 14.965 87.432 14.261 C 88.04 13.541 88.344 12.613 88.344 11.477 C 88.344 10.325 88.04 9.397 87.432 8.693 C 86.824 7.973 86.032 7.613 85.056 7.613 C 84.08 7.613 83.288 7.973 82.68 8.693 C 82.072 9.397 81.768 10.325 81.768 11.477 C 81.768 12.613 82.072 13.541 82.68 14.261 C 83.288 14.965 84.08 15.317 85.056 15.317 Z" fill="#494D4B"/>
  <path d="M 100.332 18.053 C 99.132 18.053 98.052 17.765 97.092 17.189 C 96.148 16.613 95.396 15.829 94.836 14.837 C 94.292 13.845 94.02 12.717 94.02 11.453 C 94.02 10.205 94.292 9.085 94.836 8.093 C 95.396 7.101 96.148 6.317 97.092 5.741 C 98.052 5.165 99.132 4.877 100.332 4.877 C 101.468 4.877 102.5 5.085 103.428 5.501 C 104.372 5.917 105.108 6.501 105.636 7.253 L 103.836 9.413 C 103.5 8.949 103.036 8.557 102.444 8.237 C 101.852 7.901 101.252 7.733 100.644 7.733 C 99.972 7.733 99.372 7.901 98.844 8.237 C 98.332 8.557 97.924 8.997 97.62 9.557 C 97.332 10.117 97.188 10.749 97.188 11.453 C 97.188 12.157 97.34 12.789 97.644 13.349 C 97.948 13.909 98.364 14.357 98.892 14.693 C 99.42 15.013 100.012 15.173 100.668 15.173 C 101.292 15.173 101.868 15.037 102.396 14.765 C 102.924 14.477 103.404 14.077 103.836 13.565 L 105.636 15.725 C 105.092 16.429 104.34 16.997 103.38 17.429 C 102.42 17.845 101.404 18.053 100.332 18.053 Z" fill="#494D4B"/>
  <path d="M 112.596 18.053 C 111.54 18.053 110.588 17.765 109.74 17.189 C 108.892 16.613 108.212 15.829 107.7 14.837 C 107.204 13.845 106.956 12.717 106.956 11.453 C 106.956 10.157 107.204 9.021 107.7 8.045 C 108.212 7.053 108.9 6.277 109.764 5.717 C 110.644 5.157 111.636 4.877 112.74 4.877 C 113.636 4.877 114.42 5.061 115.092 5.429 C 115.764 5.781 116.3 6.245 116.7 6.821 L 116.7 5.141 L 119.964 5.141 L 119.964 17.813 L 116.676 17.813 L 116.676 16.109 C 116.228 16.669 115.644 17.133 114.924 17.501 C 114.22 17.869 113.444 18.053 112.596 18.053 Z M 113.484 15.197 C 114.46 15.197 115.252 14.853 115.86 14.165 C 116.468 13.477 116.772 12.573 116.772 11.453 C 116.772 10.333 116.468 9.429 115.86 8.741 C 115.252 8.053 114.46 7.709 113.484 7.709 C 112.524 7.709 111.74 8.053 111.132 8.741 C 110.54 9.429 110.244 10.333 110.244 11.453 C 110.244 12.573 110.54 13.477 111.132 14.165 C 111.74 14.853 112.524 15.197 113.484 15.197 Z" fill="#494D4B"/>
  <path d="M 127.655 18.053 C 126.487 18.053 125.447 17.861 124.535 17.477 C 123.623 17.093 122.887 16.549 122.327 15.845 L 124.391 14.093 C 124.871 14.621 125.415 15.005 126.023 15.245 C 126.631 15.469 127.247 15.581 127.871 15.581 C 128.367 15.581 128.767 15.469 129.071 15.245 C 129.375 15.021 129.527 14.709 129.527 14.309 C 129.527 13.957 129.383 13.677 129.095 13.469 C 128.807 13.277 128.119 13.037 127.031 12.749 C 125.415 12.333 124.271 11.765 123.599 11.045 C 123.007 10.405 122.711 9.613 122.711 8.669 C 122.711 7.917 122.935 7.261 123.383 6.701 C 123.831 6.125 124.423 5.677 125.159 5.357 C 125.895 5.037 126.695 4.877 127.559 4.877 C 128.551 4.877 129.487 5.053 130.367 5.405 C 131.247 5.757 131.983 6.237 132.575 6.845 L 130.799 8.789 C 130.351 8.373 129.831 8.029 129.239 7.757 C 128.663 7.469 128.127 7.325 127.631 7.325 C 126.479 7.325 125.903 7.725 125.903 8.525 C 125.919 8.909 126.095 9.213 126.431 9.437 C 126.751 9.661 127.479 9.925 128.615 10.229 C 130.135 10.629 131.207 11.157 131.831 11.813 C 132.375 12.373 132.647 13.117 132.647 14.045 C 132.647 14.813 132.423 15.501 131.975 16.109 C 131.543 16.717 130.951 17.197 130.199 17.549 C 129.447 17.885 128.599 18.053 127.655 18.053 Z" fill="#494D4B"/>
  <path d="M 136.373 17.813 L 136.373 8.093 L 133.973 8.093 L 133.973 5.141 L 136.373 5.141 L 136.373 1.901 L 139.637 1.901 L 139.637 5.141 L 142.301 5.141 L 142.301 8.093 L 139.637 8.093 L 139.637 17.813 L 136.373 17.813 Z" fill="#494D4B"/>
  <path d="M38.125 19.8876C38.1494 23.0542 37.3398 26.1714 35.7774 28.9259C35.575 29.2837 35.3607 29.6337 35.1344 29.9759C35.0225 30.1498 34.8772 30.2998 34.7069 30.4171C34.5367 30.5345 34.3448 30.6169 34.1424 30.6595C33.94 30.7021 33.7312 30.7041 33.5281 30.6655C33.3249 30.6268 33.1315 30.5482 32.9589 30.4341C32.7864 30.3201 32.6382 30.173 32.523 30.0013C32.4077 29.8296 32.3277 29.6367 32.2875 29.4338C32.2474 29.231 32.2479 29.0222 32.2891 28.8195C32.3303 28.6168 32.4113 28.4244 32.5274 28.2532C34.0185 25.9897 34.8685 23.3644 34.987 20.6564C35.1054 17.9484 34.4879 15.2589 33.2001 12.8738C31.9123 10.4887 30.0022 8.49708 27.673 7.11069C25.3438 5.7243 22.6825 4.99493 19.9719 5.0001C14.7618 5.01026 10.1422 7.74541 7.45706 11.8321C5.85189 14.2703 4.99772 17.1259 5.0005 20.045C5.00327 22.9641 5.86288 25.8182 7.47269 28.2532C7.70092 28.5991 7.78239 29.0216 7.69917 29.4275C7.61595 29.8335 7.37486 30.1898 7.02894 30.4181C6.68302 30.6463 6.2606 30.7278 5.85461 30.6445C5.44863 30.5613 5.09233 30.3202 4.8641 29.9743C3.0791 27.2655 2.05381 24.1272 1.89521 20.887C1.73662 17.6468 2.45053 14.4235 3.96245 11.5533C5.47437 8.68306 7.72889 6.27121 10.4907 4.56941C13.2526 2.86761 16.4206 1.93822 19.6641 1.87822C19.7782 1.87588 19.8914 1.8751 20.0047 1.8751C24.7949 1.86523 29.3933 3.75637 32.7905 7.13341C36.1878 10.5105 38.1063 15.0975 38.125 19.8876Z" fill="#494D4B"/>
  <path d="M9.06588 22.7944L11.8978 36.8819C12.0678 37.7276 12.8911 38.2753 13.7368 38.1053C14.5825 37.9353 15.1303 37.1119 14.9603 36.2663L12.1284 22.1788C11.9584 21.3331 11.135 20.7853 10.2893 20.9553C9.44363 21.1253 8.89588 21.9487 9.06588 22.7944Z" fill="#04D361"/>
  <path d="M11.8438 36.5641L11.1258 36.7086C10.059 36.9234 8.95038 36.7225 8.02677 36.147C7.10316 35.5715 6.43432 34.6648 6.15706 33.6125C6.13597 33.5313 6.11644 33.45 6.10003 33.3672L5.07112 28.2555C4.84815 27.1459 5.07485 25.9931 5.70141 25.0506C6.32796 24.108 7.3031 23.4528 8.41253 23.2289L9.1305 23.0844L10.3899 29.3406L11.8438 36.5641Z" fill="#494D4B"/>
  <path d="M11.8438 36.5641L11.1259 36.7086C10.059 36.9234 8.95043 36.7225 8.02682 36.147C7.1032 35.5715 6.43437 34.6649 6.1571 33.6125C7.67448 32.2981 9.08951 30.87 10.3899 29.3407L11.8438 36.5641Z" fill="#494D4B"/>
  <path d="M36.1477 27.0875L35.7774 28.9258C35.575 29.2836 35.3607 29.6336 35.1344 29.9758C35.0225 30.1497 34.8772 30.2997 34.7069 30.4171C34.5366 30.5344 34.3448 30.6168 34.1424 30.6594C33.94 30.702 33.7312 30.7041 33.5281 30.6654C33.3249 30.6267 33.1315 30.5481 32.9589 30.4341C32.7864 30.3201 32.6382 30.1729 32.5229 30.0012C32.4077 29.8295 32.3277 29.6366 32.2875 29.4338C32.2474 29.2309 32.2479 29.0221 32.2891 28.8194C32.3303 28.6167 32.4112 28.4243 32.5274 28.2531C33.5865 26.6502 34.3258 24.8577 34.7047 22.9742C35.2927 23.4668 35.7371 24.1089 35.991 24.8327C36.245 25.5566 36.2991 26.3355 36.1477 27.0875Z" fill="#494D4B"/>
  <path d="M34.2953 8.82971L32.0539 11.0711C30.6573 9.1825 28.836 7.64891 26.7371 6.59426C24.6383 5.53962 22.3208 4.99349 19.9719 5.00002C14.7617 5.01017 10.1422 7.74533 7.45703 11.832L5.18359 9.55861C6.82274 7.22938 8.98843 5.31984 11.5046 3.98527C14.0207 2.65069 16.8163 1.92875 19.6641 1.87814C19.7781 1.8758 19.8914 1.87502 20.0047 1.87502C22.7591 1.86885 25.4786 2.49223 27.9553 3.69756C30.4321 4.9029 32.6006 6.6583 34.2953 8.82971Z" fill="#8257E5"/>
  <path d="M27.8464 22.1635L25.0145 36.251C24.8445 37.0967 25.3922 37.9201 26.2379 38.0901C27.0836 38.2601 27.907 37.7123 28.077 36.8666L30.9089 22.7791C31.0789 21.9335 30.5311 21.1101 29.6854 20.9401C28.8397 20.7701 28.0164 21.3178 27.8464 22.1635Z" fill="#04D361"/>
  <path d="M34.9289 28.2555L33.9 33.3672C33.6766 34.4767 33.0216 35.4521 32.0791 36.0787C31.1366 36.7054 29.9838 36.9319 28.8742 36.7086L28.1562 36.5641L28.9 32.8711L30.8695 23.0844L31.5875 23.2289C32.6968 23.4531 33.672 24.108 34.2992 25.05C34.3856 25.1799 34.4646 25.3144 34.5359 25.4531C34.9817 26.3154 35.1203 27.3038 34.9289 28.2555Z" fill="#494D4B"/>
  <path d="M34.9289 28.2555L33.9 33.3672C33.6766 34.4768 33.0216 35.4521 32.0791 36.0788C31.1366 36.7054 29.9838 36.932 28.8742 36.7086L28.1562 36.5641L28.9 32.8711C31.0403 30.6086 32.9299 28.1215 34.5359 25.4531C34.9817 26.3154 35.1203 27.3039 34.9289 28.2555Z" fill="#494D4B"/>
  <text style="fill: rgb(73, 77, 75); font-family: Lexend; font-size: 24px; font-weight: 600; white-space: pre;" x="57.453" y="38.067">Valley</text>
</svg>